<?xml version="1.0" encoding="UTF-8"?>
<!DOCTYPE svg PUBLIC "-//W3C//DTD SVG 1.1//EN" "http://www.w3.org/Graphics/SVG/1.1/DTD/svg11.dtd">
<svg xmlns="http://www.w3.org/2000/svg" version="1.1" width="180px" height="180px" style="shape-rendering:geometricPrecision; text-rendering:geometricPrecision; image-rendering:optimizeQuality; fill-rule:evenodd; clip-rule:evenodd" xmlns:xlink="http://www.w3.org/1999/xlink">
<g><path style="opacity:0.999" fill="#575FCC" d="M 9.5,-0.5 C 62.8333,-0.5 116.167,-0.5 169.5,-0.5C 173.167,2.5 176.5,5.83333 179.5,9.5C 179.5,62.8333 179.5,116.167 179.5,169.5C 176.5,173.167 173.167,176.5 169.5,179.5C 116.167,179.5 62.8333,179.5 9.5,179.5C 5.83333,176.5 2.5,173.167 -0.5,169.5C -0.5,116.167 -0.5,62.8333 -0.5,9.5C 2.5,5.83333 5.83333,2.5 9.5,-0.5 Z"/></g>
<g><path style="opacity:1" fill="#fcfdfe" d="M 26.5,31.5 C 46.9988,31.8495 55.1655,42.1829 51,62.5C 46.5936,79.7713 43.4269,97.2713 41.5,115C 41.2502,126.731 46.9169,131.064 58.5,128C 67.1343,124.864 73.801,119.364 78.5,111.5C 74.1974,97.3596 72.1974,82.8596 72.5,68C 70.1516,48.0183 78.8182,39.0183 98.5,41C 103.974,42.4735 107.474,45.9735 109,51.5C 108.697,72.4156 103.863,92.2489 94.5,111C 102.701,131.404 114.535,133.904 130,118.5C 137.698,106.242 142.531,92.9091 144.5,78.5C 133.329,77.1561 125.829,71.1561 122,60.5C 118.05,47.7604 121.883,38.2604 133.5,32C 147.497,28.0783 156.664,32.9117 161,46.5C 161.17,52.1958 161.67,57.8624 162.5,63.5C 165.361,61.02 168.694,60.02 172.5,60.5C 172.508,68.6753 168.674,74.3419 161,77.5C 159.097,97.4847 152.764,115.818 142,132.5C 129.524,146.743 114.357,150.909 96.5,145C 91.1962,140.54 86.8628,135.373 83.5,129.5C 76.5316,137.315 68.1983,143.148 58.5,147C 45.03,150.512 33.1966,147.679 23,138.5C 19.9278,132.878 18.0944,126.878 17.5,120.5C 20.6094,104.336 24.4428,88.3359 29,72.5C 30.8221,65.145 30.8221,57.8116 29,50.5C 27.1363,47.7928 24.6363,46.9595 21.5,48C 17.9661,51.2658 13.9661,53.7658 9.5,55.5C 8.55805,55.3918 7.72472,55.0585 7,54.5C 6.26173,50.7387 6.59507,47.0721 8,43.5C 13.0666,37.5653 19.2333,33.5653 26.5,31.5 Z"/></g>
<g><path style="opacity:1" fill="#575FCC" d="M 141.5,44.5 C 143.722,44.178 145.556,44.8446 147,46.5C 148.608,51.7952 148.775,57.1286 147.5,62.5C 140.92,58.0102 138.92,52.0102 141.5,44.5 Z"/></g>
<g><path style="opacity:1" fill="#575FCC" d="M 89.5,53.5 C 91.1439,53.2865 92.6439,53.6198 94,54.5C 95.5699,60.0527 95.9032,65.7194 95,71.5C 93.6457,77.5836 91.979,83.5836 90,89.5C 87.6719,78.6215 87.0052,67.6215 88,56.5C 88.5133,55.4734 89.0133,54.4734 89.5,53.5 Z"/></g>
</svg>
